<mxfile host="app.diagrams.net" modified="2020-09-02T04:35:29.196Z" agent="5.0 (Windows NT 10.0; Win64; x64) AppleWebKit/537.36 (KHTML, like Gecko) Chrome/83.0.4103.106 Whale/2.8.105.22 Safari/537.36" etag="rbtfc_K1C7XRPWaSkUXl" version="13.6.6" type="github">
  <diagram id="C5RBs43oDa-KdzZeNtuy" name="Page-1">
    <mxGraphModel dx="1951" dy="1170" grid="1" gridSize="10" guides="1" tooltips="1" connect="1" arrows="1" fold="1" page="1" pageScale="1" pageWidth="1654" pageHeight="2336" math="0" shadow="0">
      <root>
        <mxCell id="WIyWlLk6GJQsqaUBKTNV-0" />
        <mxCell id="WIyWlLk6GJQsqaUBKTNV-1" parent="WIyWlLk6GJQsqaUBKTNV-0" />
        <mxCell id="K8fyrSAq3BvqhwAzwWVH-3" style="edgeStyle=orthogonalEdgeStyle;rounded=0;orthogonalLoop=1;jettySize=auto;html=1;exitX=0.5;exitY=1;exitDx=0;exitDy=0;exitPerimeter=0;entryX=0.5;entryY=0;entryDx=0;entryDy=0;" edge="1" parent="WIyWlLk6GJQsqaUBKTNV-1" source="K8fyrSAq3BvqhwAzwWVH-0" target="K8fyrSAq3BvqhwAzwWVH-1">
          <mxGeometry relative="1" as="geometry" />
        </mxCell>
        <mxCell id="K8fyrSAq3BvqhwAzwWVH-0" value="사이트 접속" style="strokeWidth=2;html=1;shape=mxgraph.flowchart.start_1;whiteSpace=wrap;" vertex="1" parent="WIyWlLk6GJQsqaUBKTNV-1">
          <mxGeometry x="80" y="240" width="100" height="60" as="geometry" />
        </mxCell>
        <mxCell id="K8fyrSAq3BvqhwAzwWVH-5" value="No" style="edgeStyle=orthogonalEdgeStyle;rounded=0;orthogonalLoop=1;jettySize=auto;html=1;exitX=1;exitY=0.5;exitDx=0;exitDy=0;entryX=0;entryY=0.5;entryDx=0;entryDy=0;" edge="1" parent="WIyWlLk6GJQsqaUBKTNV-1" source="K8fyrSAq3BvqhwAzwWVH-1" target="K8fyrSAq3BvqhwAzwWVH-4">
          <mxGeometry relative="1" as="geometry" />
        </mxCell>
        <mxCell id="K8fyrSAq3BvqhwAzwWVH-11" value="Yes" style="edgeStyle=orthogonalEdgeStyle;rounded=0;orthogonalLoop=1;jettySize=auto;html=1;exitX=0.5;exitY=1;exitDx=0;exitDy=0;entryX=0.25;entryY=0;entryDx=0;entryDy=0;" edge="1" parent="WIyWlLk6GJQsqaUBKTNV-1" source="K8fyrSAq3BvqhwAzwWVH-1" target="K8fyrSAq3BvqhwAzwWVH-9">
          <mxGeometry relative="1" as="geometry" />
        </mxCell>
        <mxCell id="K8fyrSAq3BvqhwAzwWVH-1" value="로그인 여부 확인" style="rhombus;whiteSpace=wrap;html=1;" vertex="1" parent="WIyWlLk6GJQsqaUBKTNV-1">
          <mxGeometry x="80" y="360" width="100" height="60" as="geometry" />
        </mxCell>
        <mxCell id="K8fyrSAq3BvqhwAzwWVH-7" style="edgeStyle=orthogonalEdgeStyle;rounded=0;orthogonalLoop=1;jettySize=auto;html=1;entryX=0.5;entryY=0;entryDx=0;entryDy=0;" edge="1" parent="WIyWlLk6GJQsqaUBKTNV-1" source="K8fyrSAq3BvqhwAzwWVH-4" target="K8fyrSAq3BvqhwAzwWVH-6">
          <mxGeometry relative="1" as="geometry" />
        </mxCell>
        <mxCell id="K8fyrSAq3BvqhwAzwWVH-101" style="edgeStyle=orthogonalEdgeStyle;rounded=0;orthogonalLoop=1;jettySize=auto;html=1;exitX=0.75;exitY=0;exitDx=0;exitDy=0;entryX=0.5;entryY=1;entryDx=0;entryDy=0;" edge="1" parent="WIyWlLk6GJQsqaUBKTNV-1" source="K8fyrSAq3BvqhwAzwWVH-4" target="K8fyrSAq3BvqhwAzwWVH-99">
          <mxGeometry relative="1" as="geometry">
            <Array as="points">
              <mxPoint x="330" y="230" />
              <mxPoint x="360" y="230" />
            </Array>
          </mxGeometry>
        </mxCell>
        <mxCell id="K8fyrSAq3BvqhwAzwWVH-4" value="로그인 페이지" style="shape=document;whiteSpace=wrap;html=1;boundedLbl=1;" vertex="1" parent="WIyWlLk6GJQsqaUBKTNV-1">
          <mxGeometry x="240" y="240" width="120" height="60" as="geometry" />
        </mxCell>
        <mxCell id="K8fyrSAq3BvqhwAzwWVH-8" value="실패" style="edgeStyle=orthogonalEdgeStyle;rounded=0;orthogonalLoop=1;jettySize=auto;html=1;exitX=1;exitY=0.5;exitDx=0;exitDy=0;entryX=1;entryY=0.5;entryDx=0;entryDy=0;" edge="1" parent="WIyWlLk6GJQsqaUBKTNV-1" source="K8fyrSAq3BvqhwAzwWVH-6" target="K8fyrSAq3BvqhwAzwWVH-4">
          <mxGeometry relative="1" as="geometry" />
        </mxCell>
        <mxCell id="K8fyrSAq3BvqhwAzwWVH-10" value="성공" style="edgeStyle=orthogonalEdgeStyle;rounded=0;orthogonalLoop=1;jettySize=auto;html=1;exitX=0.5;exitY=1;exitDx=0;exitDy=0;entryX=0.5;entryY=0;entryDx=0;entryDy=0;" edge="1" parent="WIyWlLk6GJQsqaUBKTNV-1" source="K8fyrSAq3BvqhwAzwWVH-6" target="K8fyrSAq3BvqhwAzwWVH-9">
          <mxGeometry relative="1" as="geometry" />
        </mxCell>
        <mxCell id="K8fyrSAq3BvqhwAzwWVH-6" value="로그인" style="rhombus;whiteSpace=wrap;html=1;" vertex="1" parent="WIyWlLk6GJQsqaUBKTNV-1">
          <mxGeometry x="250" y="360" width="100" height="60" as="geometry" />
        </mxCell>
        <mxCell id="K8fyrSAq3BvqhwAzwWVH-14" style="edgeStyle=orthogonalEdgeStyle;rounded=0;orthogonalLoop=1;jettySize=auto;html=1;entryX=1;entryY=0.5;entryDx=0;entryDy=0;exitX=1;exitY=0.25;exitDx=0;exitDy=0;" edge="1" parent="WIyWlLk6GJQsqaUBKTNV-1" source="K8fyrSAq3BvqhwAzwWVH-9" target="K8fyrSAq3BvqhwAzwWVH-13">
          <mxGeometry relative="1" as="geometry">
            <Array as="points">
              <mxPoint x="400" y="495" />
              <mxPoint x="400" y="670" />
            </Array>
          </mxGeometry>
        </mxCell>
        <mxCell id="K8fyrSAq3BvqhwAzwWVH-15" style="edgeStyle=orthogonalEdgeStyle;rounded=0;orthogonalLoop=1;jettySize=auto;html=1;entryX=1;entryY=0.5;entryDx=0;entryDy=0;exitX=1;exitY=0.25;exitDx=0;exitDy=0;" edge="1" parent="WIyWlLk6GJQsqaUBKTNV-1" source="K8fyrSAq3BvqhwAzwWVH-9" target="K8fyrSAq3BvqhwAzwWVH-12">
          <mxGeometry relative="1" as="geometry">
            <Array as="points">
              <mxPoint x="400" y="495" />
              <mxPoint x="400" y="590" />
            </Array>
          </mxGeometry>
        </mxCell>
        <mxCell id="K8fyrSAq3BvqhwAzwWVH-27" style="edgeStyle=orthogonalEdgeStyle;rounded=0;orthogonalLoop=1;jettySize=auto;html=1;exitX=1;exitY=0.25;exitDx=0;exitDy=0;entryX=0;entryY=0.5;entryDx=0;entryDy=0;entryPerimeter=0;" edge="1" parent="WIyWlLk6GJQsqaUBKTNV-1" source="K8fyrSAq3BvqhwAzwWVH-9" target="K8fyrSAq3BvqhwAzwWVH-26">
          <mxGeometry relative="1" as="geometry" />
        </mxCell>
        <mxCell id="K8fyrSAq3BvqhwAzwWVH-9" value="팀 선택 페이지" style="shape=document;whiteSpace=wrap;html=1;boundedLbl=1;" vertex="1" parent="WIyWlLk6GJQsqaUBKTNV-1">
          <mxGeometry x="240" y="480" width="120" height="60" as="geometry" />
        </mxCell>
        <mxCell id="K8fyrSAq3BvqhwAzwWVH-22" style="edgeStyle=orthogonalEdgeStyle;rounded=0;orthogonalLoop=1;jettySize=auto;html=1;exitX=0;exitY=0.5;exitDx=0;exitDy=0;entryX=1;entryY=0.5;entryDx=0;entryDy=0;" edge="1" parent="WIyWlLk6GJQsqaUBKTNV-1" source="K8fyrSAq3BvqhwAzwWVH-12" target="K8fyrSAq3BvqhwAzwWVH-18">
          <mxGeometry relative="1" as="geometry" />
        </mxCell>
        <mxCell id="K8fyrSAq3BvqhwAzwWVH-12" value="팀 생성" style="rounded=1;whiteSpace=wrap;html=1;" vertex="1" parent="WIyWlLk6GJQsqaUBKTNV-1">
          <mxGeometry x="280" y="560" width="80" height="60" as="geometry" />
        </mxCell>
        <mxCell id="K8fyrSAq3BvqhwAzwWVH-23" style="edgeStyle=orthogonalEdgeStyle;rounded=0;orthogonalLoop=1;jettySize=auto;html=1;exitX=0;exitY=0.5;exitDx=0;exitDy=0;entryX=1;entryY=0.5;entryDx=0;entryDy=0;" edge="1" parent="WIyWlLk6GJQsqaUBKTNV-1" source="K8fyrSAq3BvqhwAzwWVH-13" target="K8fyrSAq3BvqhwAzwWVH-19">
          <mxGeometry relative="1" as="geometry" />
        </mxCell>
        <mxCell id="K8fyrSAq3BvqhwAzwWVH-13" value="팀 참가" style="rounded=1;whiteSpace=wrap;html=1;" vertex="1" parent="WIyWlLk6GJQsqaUBKTNV-1">
          <mxGeometry x="280" y="640" width="80" height="60" as="geometry" />
        </mxCell>
        <mxCell id="K8fyrSAq3BvqhwAzwWVH-25" style="edgeStyle=orthogonalEdgeStyle;rounded=0;orthogonalLoop=1;jettySize=auto;html=1;exitX=0;exitY=0.5;exitDx=0;exitDy=0;entryX=0;entryY=0.5;entryDx=0;entryDy=0;" edge="1" parent="WIyWlLk6GJQsqaUBKTNV-1" source="K8fyrSAq3BvqhwAzwWVH-18" target="K8fyrSAq3BvqhwAzwWVH-9">
          <mxGeometry relative="1" as="geometry" />
        </mxCell>
        <mxCell id="K8fyrSAq3BvqhwAzwWVH-18" value="팀 생성 페이지" style="shape=document;whiteSpace=wrap;html=1;boundedLbl=1;" vertex="1" parent="WIyWlLk6GJQsqaUBKTNV-1">
          <mxGeometry x="140" y="560" width="120" height="60" as="geometry" />
        </mxCell>
        <mxCell id="K8fyrSAq3BvqhwAzwWVH-24" style="edgeStyle=orthogonalEdgeStyle;rounded=0;orthogonalLoop=1;jettySize=auto;html=1;exitX=0;exitY=0.5;exitDx=0;exitDy=0;entryX=0;entryY=0.5;entryDx=0;entryDy=0;" edge="1" parent="WIyWlLk6GJQsqaUBKTNV-1" source="K8fyrSAq3BvqhwAzwWVH-19" target="K8fyrSAq3BvqhwAzwWVH-9">
          <mxGeometry relative="1" as="geometry" />
        </mxCell>
        <mxCell id="K8fyrSAq3BvqhwAzwWVH-19" value="팀 참가 페이지" style="shape=document;whiteSpace=wrap;html=1;boundedLbl=1;" vertex="1" parent="WIyWlLk6GJQsqaUBKTNV-1">
          <mxGeometry x="140" y="640" width="120" height="60" as="geometry" />
        </mxCell>
        <mxCell id="K8fyrSAq3BvqhwAzwWVH-31" style="edgeStyle=orthogonalEdgeStyle;rounded=0;orthogonalLoop=1;jettySize=auto;html=1;exitX=0.885;exitY=0.91;exitDx=0;exitDy=0;exitPerimeter=0;entryX=1;entryY=0.5;entryDx=0;entryDy=0;" edge="1" parent="WIyWlLk6GJQsqaUBKTNV-1" source="K8fyrSAq3BvqhwAzwWVH-26" target="K8fyrSAq3BvqhwAzwWVH-29">
          <mxGeometry relative="1" as="geometry" />
        </mxCell>
        <mxCell id="K8fyrSAq3BvqhwAzwWVH-32" style="edgeStyle=orthogonalEdgeStyle;rounded=0;orthogonalLoop=1;jettySize=auto;html=1;exitX=0.885;exitY=0.91;exitDx=0;exitDy=0;exitPerimeter=0;entryX=1;entryY=0.5;entryDx=0;entryDy=0;" edge="1" parent="WIyWlLk6GJQsqaUBKTNV-1" source="K8fyrSAq3BvqhwAzwWVH-26" target="K8fyrSAq3BvqhwAzwWVH-30">
          <mxGeometry relative="1" as="geometry" />
        </mxCell>
        <mxCell id="K8fyrSAq3BvqhwAzwWVH-36" style="edgeStyle=orthogonalEdgeStyle;rounded=0;orthogonalLoop=1;jettySize=auto;html=1;exitX=0.885;exitY=0.91;exitDx=0;exitDy=0;exitPerimeter=0;entryX=1;entryY=0.5;entryDx=0;entryDy=0;" edge="1" parent="WIyWlLk6GJQsqaUBKTNV-1" source="K8fyrSAq3BvqhwAzwWVH-26" target="K8fyrSAq3BvqhwAzwWVH-35">
          <mxGeometry relative="1" as="geometry" />
        </mxCell>
        <mxCell id="K8fyrSAq3BvqhwAzwWVH-26" value="참가한 팀 목록" style="strokeWidth=2;html=1;shape=mxgraph.flowchart.multi-document;whiteSpace=wrap;" vertex="1" parent="WIyWlLk6GJQsqaUBKTNV-1">
          <mxGeometry x="440" y="360" width="120" height="60" as="geometry" />
        </mxCell>
        <mxCell id="K8fyrSAq3BvqhwAzwWVH-29" value="팀 탈퇴" style="rounded=1;whiteSpace=wrap;html=1;" vertex="1" parent="WIyWlLk6GJQsqaUBKTNV-1">
          <mxGeometry x="440" y="440" width="80" height="60" as="geometry" />
        </mxCell>
        <mxCell id="K8fyrSAq3BvqhwAzwWVH-30" value="팀 삭제" style="rounded=1;whiteSpace=wrap;html=1;" vertex="1" parent="WIyWlLk6GJQsqaUBKTNV-1">
          <mxGeometry x="440" y="520" width="80" height="60" as="geometry" />
        </mxCell>
        <mxCell id="K8fyrSAq3BvqhwAzwWVH-38" style="edgeStyle=orthogonalEdgeStyle;rounded=0;orthogonalLoop=1;jettySize=auto;html=1;exitX=0.5;exitY=1;exitDx=0;exitDy=0;entryX=0;entryY=0.5;entryDx=0;entryDy=0;" edge="1" parent="WIyWlLk6GJQsqaUBKTNV-1" source="K8fyrSAq3BvqhwAzwWVH-35" target="K8fyrSAq3BvqhwAzwWVH-37">
          <mxGeometry relative="1" as="geometry">
            <mxPoint x="580" y="440" as="targetPoint" />
            <Array as="points">
              <mxPoint x="480" y="680" />
              <mxPoint x="580" y="680" />
              <mxPoint x="580" y="270" />
            </Array>
          </mxGeometry>
        </mxCell>
        <mxCell id="K8fyrSAq3BvqhwAzwWVH-35" value="팀 선택" style="rounded=1;whiteSpace=wrap;html=1;" vertex="1" parent="WIyWlLk6GJQsqaUBKTNV-1">
          <mxGeometry x="440" y="600" width="80" height="60" as="geometry" />
        </mxCell>
        <mxCell id="K8fyrSAq3BvqhwAzwWVH-42" style="edgeStyle=orthogonalEdgeStyle;rounded=0;orthogonalLoop=1;jettySize=auto;html=1;entryX=0;entryY=0.5;entryDx=0;entryDy=0;entryPerimeter=0;" edge="1" parent="WIyWlLk6GJQsqaUBKTNV-1" target="K8fyrSAq3BvqhwAzwWVH-41">
          <mxGeometry relative="1" as="geometry">
            <mxPoint x="626" y="660" as="targetPoint" />
            <mxPoint x="619" y="297" as="sourcePoint" />
            <Array as="points">
              <mxPoint x="620" y="297" />
              <mxPoint x="620" y="650" />
            </Array>
          </mxGeometry>
        </mxCell>
        <mxCell id="K8fyrSAq3BvqhwAzwWVH-46" style="edgeStyle=orthogonalEdgeStyle;rounded=0;orthogonalLoop=1;jettySize=auto;html=1;entryX=0;entryY=0.5;entryDx=0;entryDy=0;entryPerimeter=0;exitX=0.167;exitY=0.967;exitDx=0;exitDy=0;exitPerimeter=0;" edge="1" parent="WIyWlLk6GJQsqaUBKTNV-1" source="K8fyrSAq3BvqhwAzwWVH-37" target="K8fyrSAq3BvqhwAzwWVH-40">
          <mxGeometry relative="1" as="geometry" />
        </mxCell>
        <mxCell id="K8fyrSAq3BvqhwAzwWVH-47" style="edgeStyle=orthogonalEdgeStyle;rounded=0;orthogonalLoop=1;jettySize=auto;html=1;entryX=0;entryY=0.5;entryDx=0;entryDy=0;entryPerimeter=0;" edge="1" parent="WIyWlLk6GJQsqaUBKTNV-1" source="K8fyrSAq3BvqhwAzwWVH-37" target="K8fyrSAq3BvqhwAzwWVH-39">
          <mxGeometry relative="1" as="geometry">
            <Array as="points">
              <mxPoint x="620" y="410" />
            </Array>
          </mxGeometry>
        </mxCell>
        <mxCell id="K8fyrSAq3BvqhwAzwWVH-50" style="edgeStyle=orthogonalEdgeStyle;rounded=0;orthogonalLoop=1;jettySize=auto;html=1;entryX=0;entryY=0.5;entryDx=0;entryDy=0;" edge="1" parent="WIyWlLk6GJQsqaUBKTNV-1" source="K8fyrSAq3BvqhwAzwWVH-37" target="K8fyrSAq3BvqhwAzwWVH-49">
          <mxGeometry relative="1" as="geometry">
            <Array as="points">
              <mxPoint x="620" y="490" />
            </Array>
          </mxGeometry>
        </mxCell>
        <mxCell id="K8fyrSAq3BvqhwAzwWVH-108" style="edgeStyle=orthogonalEdgeStyle;rounded=0;orthogonalLoop=1;jettySize=auto;html=1;entryX=0;entryY=0.5;entryDx=0;entryDy=0;entryPerimeter=0;" edge="1" parent="WIyWlLk6GJQsqaUBKTNV-1" source="K8fyrSAq3BvqhwAzwWVH-37" target="K8fyrSAq3BvqhwAzwWVH-107">
          <mxGeometry relative="1" as="geometry">
            <Array as="points">
              <mxPoint x="620" y="340" />
            </Array>
          </mxGeometry>
        </mxCell>
        <mxCell id="K8fyrSAq3BvqhwAzwWVH-37" value="팀 홈 페이지" style="shape=document;whiteSpace=wrap;html=1;boundedLbl=1;" vertex="1" parent="WIyWlLk6GJQsqaUBKTNV-1">
          <mxGeometry x="600" y="240" width="120" height="60" as="geometry" />
        </mxCell>
        <mxCell id="K8fyrSAq3BvqhwAzwWVH-64" style="edgeStyle=orthogonalEdgeStyle;rounded=0;orthogonalLoop=1;jettySize=auto;html=1;entryX=0.5;entryY=1;entryDx=0;entryDy=0;" edge="1" parent="WIyWlLk6GJQsqaUBKTNV-1" source="K8fyrSAq3BvqhwAzwWVH-39" target="K8fyrSAq3BvqhwAzwWVH-59">
          <mxGeometry relative="1" as="geometry" />
        </mxCell>
        <mxCell id="K8fyrSAq3BvqhwAzwWVH-65" style="edgeStyle=orthogonalEdgeStyle;rounded=0;orthogonalLoop=1;jettySize=auto;html=1;entryX=0.5;entryY=1;entryDx=0;entryDy=0;" edge="1" parent="WIyWlLk6GJQsqaUBKTNV-1" source="K8fyrSAq3BvqhwAzwWVH-39" target="K8fyrSAq3BvqhwAzwWVH-58">
          <mxGeometry relative="1" as="geometry" />
        </mxCell>
        <mxCell id="K8fyrSAq3BvqhwAzwWVH-39" value="게시판" style="strokeWidth=2;html=1;shape=mxgraph.flowchart.multi-document;whiteSpace=wrap;" vertex="1" parent="WIyWlLk6GJQsqaUBKTNV-1">
          <mxGeometry x="640" y="380" width="120" height="60" as="geometry" />
        </mxCell>
        <mxCell id="K8fyrSAq3BvqhwAzwWVH-52" style="edgeStyle=orthogonalEdgeStyle;rounded=0;orthogonalLoop=1;jettySize=auto;html=1;exitX=1;exitY=0.5;exitDx=0;exitDy=0;exitPerimeter=0;entryX=0;entryY=0.5;entryDx=0;entryDy=0;" edge="1" parent="WIyWlLk6GJQsqaUBKTNV-1" source="K8fyrSAq3BvqhwAzwWVH-40" target="K8fyrSAq3BvqhwAzwWVH-51">
          <mxGeometry relative="1" as="geometry" />
        </mxCell>
        <mxCell id="K8fyrSAq3BvqhwAzwWVH-40" value="내가 최근에&lt;br&gt;푼 문제" style="strokeWidth=2;html=1;shape=mxgraph.flowchart.multi-document;whiteSpace=wrap;" vertex="1" parent="WIyWlLk6GJQsqaUBKTNV-1">
          <mxGeometry x="640" y="540" width="120" height="60" as="geometry" />
        </mxCell>
        <mxCell id="K8fyrSAq3BvqhwAzwWVH-53" style="edgeStyle=orthogonalEdgeStyle;rounded=0;orthogonalLoop=1;jettySize=auto;html=1;exitX=1;exitY=0.5;exitDx=0;exitDy=0;exitPerimeter=0;entryX=0;entryY=0.5;entryDx=0;entryDy=0;" edge="1" parent="WIyWlLk6GJQsqaUBKTNV-1" source="K8fyrSAq3BvqhwAzwWVH-41" target="K8fyrSAq3BvqhwAzwWVH-51">
          <mxGeometry relative="1" as="geometry" />
        </mxCell>
        <mxCell id="K8fyrSAq3BvqhwAzwWVH-41" value="팀원이 최근에&lt;br&gt;푼 문제" style="strokeWidth=2;html=1;shape=mxgraph.flowchart.multi-document;whiteSpace=wrap;" vertex="1" parent="WIyWlLk6GJQsqaUBKTNV-1">
          <mxGeometry x="640" y="620" width="120" height="60" as="geometry" />
        </mxCell>
        <mxCell id="K8fyrSAq3BvqhwAzwWVH-56" style="edgeStyle=orthogonalEdgeStyle;rounded=0;orthogonalLoop=1;jettySize=auto;html=1;entryX=0;entryY=0.5;entryDx=0;entryDy=0;" edge="1" parent="WIyWlLk6GJQsqaUBKTNV-1" source="K8fyrSAq3BvqhwAzwWVH-49" target="K8fyrSAq3BvqhwAzwWVH-55">
          <mxGeometry relative="1" as="geometry">
            <Array as="points">
              <mxPoint x="940" y="490" />
              <mxPoint x="940" y="490" />
            </Array>
          </mxGeometry>
        </mxCell>
        <mxCell id="K8fyrSAq3BvqhwAzwWVH-49" value="문제 번호&lt;br&gt;입력" style="rounded=1;whiteSpace=wrap;html=1;" vertex="1" parent="WIyWlLk6GJQsqaUBKTNV-1">
          <mxGeometry x="640" y="460" width="80" height="60" as="geometry" />
        </mxCell>
        <mxCell id="K8fyrSAq3BvqhwAzwWVH-57" style="edgeStyle=orthogonalEdgeStyle;rounded=0;orthogonalLoop=1;jettySize=auto;html=1;exitX=1;exitY=0.5;exitDx=0;exitDy=0;entryX=0;entryY=0.5;entryDx=0;entryDy=0;" edge="1" parent="WIyWlLk6GJQsqaUBKTNV-1" source="K8fyrSAq3BvqhwAzwWVH-51" target="K8fyrSAq3BvqhwAzwWVH-55">
          <mxGeometry relative="1" as="geometry">
            <Array as="points">
              <mxPoint x="920" y="610" />
              <mxPoint x="920" y="490" />
            </Array>
          </mxGeometry>
        </mxCell>
        <mxCell id="K8fyrSAq3BvqhwAzwWVH-51" value="문제 선택" style="rounded=1;whiteSpace=wrap;html=1;" vertex="1" parent="WIyWlLk6GJQsqaUBKTNV-1">
          <mxGeometry x="820" y="580" width="80" height="60" as="geometry" />
        </mxCell>
        <mxCell id="K8fyrSAq3BvqhwAzwWVH-123" style="edgeStyle=orthogonalEdgeStyle;rounded=0;orthogonalLoop=1;jettySize=auto;html=1;entryX=0;entryY=0.5;entryDx=0;entryDy=0;" edge="1" parent="WIyWlLk6GJQsqaUBKTNV-1" source="K8fyrSAq3BvqhwAzwWVH-55" target="K8fyrSAq3BvqhwAzwWVH-97">
          <mxGeometry relative="1" as="geometry" />
        </mxCell>
        <mxCell id="K8fyrSAq3BvqhwAzwWVH-124" style="edgeStyle=orthogonalEdgeStyle;rounded=0;orthogonalLoop=1;jettySize=auto;html=1;entryX=0;entryY=0.5;entryDx=0;entryDy=0;" edge="1" parent="WIyWlLk6GJQsqaUBKTNV-1" source="K8fyrSAq3BvqhwAzwWVH-55" target="K8fyrSAq3BvqhwAzwWVH-82">
          <mxGeometry relative="1" as="geometry">
            <Array as="points">
              <mxPoint x="1120" y="490" />
              <mxPoint x="1120" y="390" />
              <mxPoint x="1140" y="390" />
              <mxPoint x="1140" y="430" />
            </Array>
          </mxGeometry>
        </mxCell>
        <mxCell id="K8fyrSAq3BvqhwAzwWVH-125" style="edgeStyle=orthogonalEdgeStyle;rounded=0;orthogonalLoop=1;jettySize=auto;html=1;entryX=0;entryY=0.5;entryDx=0;entryDy=0;entryPerimeter=0;" edge="1" parent="WIyWlLk6GJQsqaUBKTNV-1" source="K8fyrSAq3BvqhwAzwWVH-55" target="K8fyrSAq3BvqhwAzwWVH-120">
          <mxGeometry relative="1" as="geometry" />
        </mxCell>
        <mxCell id="K8fyrSAq3BvqhwAzwWVH-126" style="edgeStyle=orthogonalEdgeStyle;rounded=0;orthogonalLoop=1;jettySize=auto;html=1;entryX=0;entryY=0.5;entryDx=0;entryDy=0;entryPerimeter=0;" edge="1" parent="WIyWlLk6GJQsqaUBKTNV-1" source="K8fyrSAq3BvqhwAzwWVH-55" target="K8fyrSAq3BvqhwAzwWVH-109">
          <mxGeometry relative="1" as="geometry" />
        </mxCell>
        <mxCell id="K8fyrSAq3BvqhwAzwWVH-134" style="edgeStyle=orthogonalEdgeStyle;rounded=0;orthogonalLoop=1;jettySize=auto;html=1;exitX=1;exitY=0.5;exitDx=0;exitDy=0;entryX=0;entryY=0.5;entryDx=0;entryDy=0;entryPerimeter=0;" edge="1" parent="WIyWlLk6GJQsqaUBKTNV-1" source="K8fyrSAq3BvqhwAzwWVH-55" target="K8fyrSAq3BvqhwAzwWVH-128">
          <mxGeometry relative="1" as="geometry">
            <Array as="points">
              <mxPoint x="1120" y="490" />
              <mxPoint x="1120" y="390" />
              <mxPoint x="1140" y="390" />
              <mxPoint x="1140" y="350" />
            </Array>
          </mxGeometry>
        </mxCell>
        <mxCell id="K8fyrSAq3BvqhwAzwWVH-55" value="문제 및 코드 페이지" style="shape=document;whiteSpace=wrap;html=1;boundedLbl=1;" vertex="1" parent="WIyWlLk6GJQsqaUBKTNV-1">
          <mxGeometry x="960" y="460" width="120" height="60" as="geometry" />
        </mxCell>
        <mxCell id="K8fyrSAq3BvqhwAzwWVH-66" style="edgeStyle=orthogonalEdgeStyle;rounded=0;orthogonalLoop=1;jettySize=auto;html=1;exitX=0.5;exitY=0;exitDx=0;exitDy=0;entryX=0.517;entryY=0.9;entryDx=0;entryDy=0;entryPerimeter=0;" edge="1" parent="WIyWlLk6GJQsqaUBKTNV-1" source="K8fyrSAq3BvqhwAzwWVH-58" target="K8fyrSAq3BvqhwAzwWVH-63">
          <mxGeometry relative="1" as="geometry" />
        </mxCell>
        <mxCell id="K8fyrSAq3BvqhwAzwWVH-58" value="새 게시글&lt;br&gt;작성" style="rounded=1;whiteSpace=wrap;html=1;" vertex="1" parent="WIyWlLk6GJQsqaUBKTNV-1">
          <mxGeometry x="820" y="330" width="80" height="60" as="geometry" />
        </mxCell>
        <mxCell id="K8fyrSAq3BvqhwAzwWVH-67" style="edgeStyle=orthogonalEdgeStyle;rounded=0;orthogonalLoop=1;jettySize=auto;html=1;exitX=0.5;exitY=0;exitDx=0;exitDy=0;entryX=0.5;entryY=0.883;entryDx=0;entryDy=0;entryPerimeter=0;" edge="1" parent="WIyWlLk6GJQsqaUBKTNV-1" source="K8fyrSAq3BvqhwAzwWVH-59" target="K8fyrSAq3BvqhwAzwWVH-62">
          <mxGeometry relative="1" as="geometry" />
        </mxCell>
        <mxCell id="K8fyrSAq3BvqhwAzwWVH-59" value="게시글 자세히 보기" style="rounded=1;whiteSpace=wrap;html=1;" vertex="1" parent="WIyWlLk6GJQsqaUBKTNV-1">
          <mxGeometry x="980" y="330" width="80" height="60" as="geometry" />
        </mxCell>
        <mxCell id="K8fyrSAq3BvqhwAzwWVH-76" style="edgeStyle=orthogonalEdgeStyle;rounded=0;orthogonalLoop=1;jettySize=auto;html=1;entryX=1;entryY=0.5;entryDx=0;entryDy=0;" edge="1" parent="WIyWlLk6GJQsqaUBKTNV-1" source="K8fyrSAq3BvqhwAzwWVH-60" target="K8fyrSAq3BvqhwAzwWVH-75">
          <mxGeometry relative="1" as="geometry" />
        </mxCell>
        <mxCell id="K8fyrSAq3BvqhwAzwWVH-60" value="게시글 수정" style="rounded=1;whiteSpace=wrap;html=1;" vertex="1" parent="WIyWlLk6GJQsqaUBKTNV-1">
          <mxGeometry x="960" y="40" width="80" height="60" as="geometry" />
        </mxCell>
        <mxCell id="K8fyrSAq3BvqhwAzwWVH-73" style="edgeStyle=orthogonalEdgeStyle;rounded=0;orthogonalLoop=1;jettySize=auto;html=1;exitX=0;exitY=0.5;exitDx=0;exitDy=0;entryX=0.5;entryY=0;entryDx=0;entryDy=0;" edge="1" parent="WIyWlLk6GJQsqaUBKTNV-1" source="K8fyrSAq3BvqhwAzwWVH-61" target="K8fyrSAq3BvqhwAzwWVH-37">
          <mxGeometry relative="1" as="geometry" />
        </mxCell>
        <mxCell id="K8fyrSAq3BvqhwAzwWVH-61" value="게시글 삭제" style="rounded=1;whiteSpace=wrap;html=1;" vertex="1" parent="WIyWlLk6GJQsqaUBKTNV-1">
          <mxGeometry x="960" y="120" width="80" height="60" as="geometry" />
        </mxCell>
        <mxCell id="K8fyrSAq3BvqhwAzwWVH-72" style="edgeStyle=orthogonalEdgeStyle;rounded=0;orthogonalLoop=1;jettySize=auto;html=1;exitX=1;exitY=0.5;exitDx=0;exitDy=0;entryX=1;entryY=0.5;entryDx=0;entryDy=0;" edge="1" parent="WIyWlLk6GJQsqaUBKTNV-1" source="K8fyrSAq3BvqhwAzwWVH-62" target="K8fyrSAq3BvqhwAzwWVH-60">
          <mxGeometry relative="1" as="geometry">
            <Array as="points">
              <mxPoint x="1100" y="270" />
              <mxPoint x="1100" y="70" />
            </Array>
          </mxGeometry>
        </mxCell>
        <mxCell id="K8fyrSAq3BvqhwAzwWVH-138" style="edgeStyle=orthogonalEdgeStyle;rounded=0;orthogonalLoop=1;jettySize=auto;html=1;entryX=0;entryY=0.5;entryDx=0;entryDy=0;entryPerimeter=0;" edge="1" parent="WIyWlLk6GJQsqaUBKTNV-1" source="K8fyrSAq3BvqhwAzwWVH-62" target="K8fyrSAq3BvqhwAzwWVH-87">
          <mxGeometry relative="1" as="geometry" />
        </mxCell>
        <mxCell id="K8fyrSAq3BvqhwAzwWVH-139" style="edgeStyle=orthogonalEdgeStyle;rounded=0;orthogonalLoop=1;jettySize=auto;html=1;exitX=1;exitY=0.5;exitDx=0;exitDy=0;entryX=1;entryY=0.5;entryDx=0;entryDy=0;" edge="1" parent="WIyWlLk6GJQsqaUBKTNV-1" source="K8fyrSAq3BvqhwAzwWVH-62" target="K8fyrSAq3BvqhwAzwWVH-61">
          <mxGeometry relative="1" as="geometry" />
        </mxCell>
        <mxCell id="K8fyrSAq3BvqhwAzwWVH-62" value="개시글 상세 페이지" style="shape=document;whiteSpace=wrap;html=1;boundedLbl=1;size=0.3333333333333333;" vertex="1" parent="WIyWlLk6GJQsqaUBKTNV-1">
          <mxGeometry x="960" y="240" width="120" height="60" as="geometry" />
        </mxCell>
        <mxCell id="K8fyrSAq3BvqhwAzwWVH-69" style="edgeStyle=orthogonalEdgeStyle;rounded=0;orthogonalLoop=1;jettySize=auto;html=1;exitX=0.5;exitY=0;exitDx=0;exitDy=0;entryX=0.5;entryY=1;entryDx=0;entryDy=0;" edge="1" parent="WIyWlLk6GJQsqaUBKTNV-1" source="K8fyrSAq3BvqhwAzwWVH-63" target="K8fyrSAq3BvqhwAzwWVH-68">
          <mxGeometry relative="1" as="geometry" />
        </mxCell>
        <mxCell id="K8fyrSAq3BvqhwAzwWVH-63" value="새 게시글 작성&lt;br&gt;페이지" style="shape=document;whiteSpace=wrap;html=1;boundedLbl=1;size=0.3333333333333333;" vertex="1" parent="WIyWlLk6GJQsqaUBKTNV-1">
          <mxGeometry x="800" y="240" width="120" height="60" as="geometry" />
        </mxCell>
        <mxCell id="K8fyrSAq3BvqhwAzwWVH-70" style="edgeStyle=orthogonalEdgeStyle;rounded=0;orthogonalLoop=1;jettySize=auto;html=1;exitX=0;exitY=0.5;exitDx=0;exitDy=0;entryX=0.75;entryY=0;entryDx=0;entryDy=0;" edge="1" parent="WIyWlLk6GJQsqaUBKTNV-1" source="K8fyrSAq3BvqhwAzwWVH-68" target="K8fyrSAq3BvqhwAzwWVH-37">
          <mxGeometry relative="1" as="geometry" />
        </mxCell>
        <mxCell id="K8fyrSAq3BvqhwAzwWVH-68" value="게시글 작성 후 저장" style="rounded=1;whiteSpace=wrap;html=1;" vertex="1" parent="WIyWlLk6GJQsqaUBKTNV-1">
          <mxGeometry x="820" y="160" width="80" height="60" as="geometry" />
        </mxCell>
        <mxCell id="K8fyrSAq3BvqhwAzwWVH-78" style="edgeStyle=orthogonalEdgeStyle;rounded=0;orthogonalLoop=1;jettySize=auto;html=1;entryX=1;entryY=0.5;entryDx=0;entryDy=0;" edge="1" parent="WIyWlLk6GJQsqaUBKTNV-1" source="K8fyrSAq3BvqhwAzwWVH-75" target="K8fyrSAq3BvqhwAzwWVH-77">
          <mxGeometry relative="1" as="geometry" />
        </mxCell>
        <mxCell id="K8fyrSAq3BvqhwAzwWVH-75" value="게시글 수정 페이지" style="shape=document;whiteSpace=wrap;html=1;boundedLbl=1;size=0.3333333333333333;" vertex="1" parent="WIyWlLk6GJQsqaUBKTNV-1">
          <mxGeometry x="800" y="40" width="120" height="60" as="geometry" />
        </mxCell>
        <mxCell id="K8fyrSAq3BvqhwAzwWVH-80" style="edgeStyle=orthogonalEdgeStyle;rounded=0;orthogonalLoop=1;jettySize=auto;html=1;exitX=0;exitY=0.5;exitDx=0;exitDy=0;entryX=0.25;entryY=0;entryDx=0;entryDy=0;" edge="1" parent="WIyWlLk6GJQsqaUBKTNV-1" source="K8fyrSAq3BvqhwAzwWVH-77" target="K8fyrSAq3BvqhwAzwWVH-37">
          <mxGeometry relative="1" as="geometry" />
        </mxCell>
        <mxCell id="K8fyrSAq3BvqhwAzwWVH-77" value="수정된 게시글 저장" style="rounded=1;whiteSpace=wrap;html=1;" vertex="1" parent="WIyWlLk6GJQsqaUBKTNV-1">
          <mxGeometry x="680" y="40" width="80" height="60" as="geometry" />
        </mxCell>
        <mxCell id="K8fyrSAq3BvqhwAzwWVH-82" value="웹에서 스크래핑 한&lt;br&gt;문제 정보" style="shape=document;whiteSpace=wrap;html=1;boundedLbl=1;size=0.3333333333333333;" vertex="1" parent="WIyWlLk6GJQsqaUBKTNV-1">
          <mxGeometry x="1160" y="400" width="120" height="60" as="geometry" />
        </mxCell>
        <mxCell id="K8fyrSAq3BvqhwAzwWVH-91" style="edgeStyle=orthogonalEdgeStyle;rounded=0;orthogonalLoop=1;jettySize=auto;html=1;entryX=1;entryY=0.5;entryDx=0;entryDy=0;" edge="1" parent="WIyWlLk6GJQsqaUBKTNV-1" target="K8fyrSAq3BvqhwAzwWVH-89">
          <mxGeometry relative="1" as="geometry">
            <mxPoint x="1140" y="240" as="sourcePoint" />
            <Array as="points">
              <mxPoint x="1140" y="190" />
            </Array>
          </mxGeometry>
        </mxCell>
        <mxCell id="K8fyrSAq3BvqhwAzwWVH-92" style="edgeStyle=orthogonalEdgeStyle;rounded=0;orthogonalLoop=1;jettySize=auto;html=1;entryX=1;entryY=0.5;entryDx=0;entryDy=0;" edge="1" parent="WIyWlLk6GJQsqaUBKTNV-1" target="K8fyrSAq3BvqhwAzwWVH-90">
          <mxGeometry relative="1" as="geometry">
            <mxPoint x="1140" y="240" as="sourcePoint" />
            <Array as="points">
              <mxPoint x="1140" y="110" />
            </Array>
          </mxGeometry>
        </mxCell>
        <mxCell id="K8fyrSAq3BvqhwAzwWVH-87" value="게시글에 달린&lt;br&gt;코멘트들" style="strokeWidth=2;html=1;shape=mxgraph.flowchart.multi-document;whiteSpace=wrap;" vertex="1" parent="WIyWlLk6GJQsqaUBKTNV-1">
          <mxGeometry x="1120" y="240" width="120" height="60" as="geometry" />
        </mxCell>
        <mxCell id="K8fyrSAq3BvqhwAzwWVH-89" value="코멘트 삭제" style="rounded=1;whiteSpace=wrap;html=1;" vertex="1" parent="WIyWlLk6GJQsqaUBKTNV-1">
          <mxGeometry x="1160" y="160" width="80" height="60" as="geometry" />
        </mxCell>
        <mxCell id="K8fyrSAq3BvqhwAzwWVH-90" value="코멘트 작성" style="rounded=1;whiteSpace=wrap;html=1;" vertex="1" parent="WIyWlLk6GJQsqaUBKTNV-1">
          <mxGeometry x="1160" y="80" width="80" height="60" as="geometry" />
        </mxCell>
        <mxCell id="K8fyrSAq3BvqhwAzwWVH-121" style="edgeStyle=orthogonalEdgeStyle;rounded=0;orthogonalLoop=1;jettySize=auto;html=1;entryX=0;entryY=0.5;entryDx=0;entryDy=0;" edge="1" parent="WIyWlLk6GJQsqaUBKTNV-1" source="K8fyrSAq3BvqhwAzwWVH-97" target="K8fyrSAq3BvqhwAzwWVH-113">
          <mxGeometry relative="1" as="geometry" />
        </mxCell>
        <mxCell id="K8fyrSAq3BvqhwAzwWVH-97" value="&lt;font style=&quot;font-size: 11px&quot;&gt;내가 저장한 코드 수정&lt;br&gt;혹은 새 코드 작성 폼&lt;/font&gt;" style="shape=document;whiteSpace=wrap;html=1;boundedLbl=1;size=0.3333333333333333;" vertex="1" parent="WIyWlLk6GJQsqaUBKTNV-1">
          <mxGeometry x="1160" y="490" width="120" height="60" as="geometry" />
        </mxCell>
        <mxCell id="K8fyrSAq3BvqhwAzwWVH-105" style="edgeStyle=orthogonalEdgeStyle;rounded=0;orthogonalLoop=1;jettySize=auto;html=1;exitX=0;exitY=0.5;exitDx=0;exitDy=0;entryX=0;entryY=0.5;entryDx=0;entryDy=0;" edge="1" parent="WIyWlLk6GJQsqaUBKTNV-1" source="K8fyrSAq3BvqhwAzwWVH-98" target="K8fyrSAq3BvqhwAzwWVH-100">
          <mxGeometry relative="1" as="geometry" />
        </mxCell>
        <mxCell id="K8fyrSAq3BvqhwAzwWVH-98" value="회원가입 페이지" style="shape=document;whiteSpace=wrap;html=1;boundedLbl=1;" vertex="1" parent="WIyWlLk6GJQsqaUBKTNV-1">
          <mxGeometry x="240" y="80" width="120" height="60" as="geometry" />
        </mxCell>
        <mxCell id="K8fyrSAq3BvqhwAzwWVH-104" style="edgeStyle=orthogonalEdgeStyle;rounded=0;orthogonalLoop=1;jettySize=auto;html=1;exitX=1;exitY=0.5;exitDx=0;exitDy=0;entryX=1;entryY=0.5;entryDx=0;entryDy=0;" edge="1" parent="WIyWlLk6GJQsqaUBKTNV-1" source="K8fyrSAq3BvqhwAzwWVH-99" target="K8fyrSAq3BvqhwAzwWVH-98">
          <mxGeometry relative="1" as="geometry" />
        </mxCell>
        <mxCell id="K8fyrSAq3BvqhwAzwWVH-99" value="회원가입" style="rounded=1;whiteSpace=wrap;html=1;" vertex="1" parent="WIyWlLk6GJQsqaUBKTNV-1">
          <mxGeometry x="320" y="160" width="80" height="60" as="geometry" />
        </mxCell>
        <mxCell id="K8fyrSAq3BvqhwAzwWVH-106" style="edgeStyle=orthogonalEdgeStyle;rounded=0;orthogonalLoop=1;jettySize=auto;html=1;exitX=0.5;exitY=1;exitDx=0;exitDy=0;entryX=0.25;entryY=0;entryDx=0;entryDy=0;" edge="1" parent="WIyWlLk6GJQsqaUBKTNV-1" source="K8fyrSAq3BvqhwAzwWVH-100" target="K8fyrSAq3BvqhwAzwWVH-4">
          <mxGeometry relative="1" as="geometry">
            <Array as="points">
              <mxPoint x="240" y="230" />
              <mxPoint x="270" y="230" />
            </Array>
          </mxGeometry>
        </mxCell>
        <mxCell id="K8fyrSAq3BvqhwAzwWVH-100" value="회원정보 저장" style="rounded=1;whiteSpace=wrap;html=1;" vertex="1" parent="WIyWlLk6GJQsqaUBKTNV-1">
          <mxGeometry x="200" y="160" width="80" height="60" as="geometry" />
        </mxCell>
        <mxCell id="K8fyrSAq3BvqhwAzwWVH-107" value="팀원 목록" style="strokeWidth=2;html=1;shape=mxgraph.flowchart.multi-document;whiteSpace=wrap;" vertex="1" parent="WIyWlLk6GJQsqaUBKTNV-1">
          <mxGeometry x="640" y="310" width="120" height="60" as="geometry" />
        </mxCell>
        <mxCell id="K8fyrSAq3BvqhwAzwWVH-122" style="edgeStyle=orthogonalEdgeStyle;rounded=0;orthogonalLoop=1;jettySize=auto;html=1;" edge="1" parent="WIyWlLk6GJQsqaUBKTNV-1" source="K8fyrSAq3BvqhwAzwWVH-109" target="K8fyrSAq3BvqhwAzwWVH-115">
          <mxGeometry relative="1" as="geometry" />
        </mxCell>
        <mxCell id="K8fyrSAq3BvqhwAzwWVH-109" value="이 문제에 대해&lt;br&gt;코드를 작성한 &lt;br&gt;팀원들" style="strokeWidth=2;html=1;shape=mxgraph.flowchart.multi-document;whiteSpace=wrap;" vertex="1" parent="WIyWlLk6GJQsqaUBKTNV-1">
          <mxGeometry x="1160" y="650" width="120" height="60" as="geometry" />
        </mxCell>
        <mxCell id="K8fyrSAq3BvqhwAzwWVH-113" value="코드 저장" style="rounded=1;whiteSpace=wrap;html=1;" vertex="1" parent="WIyWlLk6GJQsqaUBKTNV-1">
          <mxGeometry x="1320" y="490" width="80" height="60" as="geometry" />
        </mxCell>
        <mxCell id="K8fyrSAq3BvqhwAzwWVH-127" value="추가" style="edgeStyle=orthogonalEdgeStyle;rounded=0;orthogonalLoop=1;jettySize=auto;html=1;entryX=1;entryY=0.5;entryDx=0;entryDy=0;entryPerimeter=0;" edge="1" parent="WIyWlLk6GJQsqaUBKTNV-1" source="K8fyrSAq3BvqhwAzwWVH-115" target="K8fyrSAq3BvqhwAzwWVH-120">
          <mxGeometry relative="1" as="geometry">
            <Array as="points">
              <mxPoint x="1380" y="600" />
            </Array>
          </mxGeometry>
        </mxCell>
        <mxCell id="K8fyrSAq3BvqhwAzwWVH-115" value="팀원이 작성한&lt;br&gt;코드 확인" style="rounded=1;whiteSpace=wrap;html=1;" vertex="1" parent="WIyWlLk6GJQsqaUBKTNV-1">
          <mxGeometry x="1320" y="650" width="80" height="60" as="geometry" />
        </mxCell>
        <mxCell id="K8fyrSAq3BvqhwAzwWVH-120" value="팀원들이&lt;br&gt;작성한 코드들" style="strokeWidth=2;html=1;shape=mxgraph.flowchart.multi-document;whiteSpace=wrap;" vertex="1" parent="WIyWlLk6GJQsqaUBKTNV-1">
          <mxGeometry x="1160" y="570" width="120" height="60" as="geometry" />
        </mxCell>
        <mxCell id="K8fyrSAq3BvqhwAzwWVH-135" style="edgeStyle=orthogonalEdgeStyle;rounded=0;orthogonalLoop=1;jettySize=auto;html=1;entryX=0;entryY=0.5;entryDx=0;entryDy=0;" edge="1" parent="WIyWlLk6GJQsqaUBKTNV-1" source="K8fyrSAq3BvqhwAzwWVH-128" target="K8fyrSAq3BvqhwAzwWVH-133">
          <mxGeometry relative="1" as="geometry" />
        </mxCell>
        <mxCell id="K8fyrSAq3BvqhwAzwWVH-136" style="edgeStyle=orthogonalEdgeStyle;rounded=0;orthogonalLoop=1;jettySize=auto;html=1;entryX=0;entryY=0.5;entryDx=0;entryDy=0;" edge="1" parent="WIyWlLk6GJQsqaUBKTNV-1" source="K8fyrSAq3BvqhwAzwWVH-128" target="K8fyrSAq3BvqhwAzwWVH-132">
          <mxGeometry relative="1" as="geometry" />
        </mxCell>
        <mxCell id="K8fyrSAq3BvqhwAzwWVH-128" value="문제에 달린&lt;br&gt;코멘트들" style="strokeWidth=2;html=1;shape=mxgraph.flowchart.multi-document;whiteSpace=wrap;" vertex="1" parent="WIyWlLk6GJQsqaUBKTNV-1">
          <mxGeometry x="1160" y="320" width="120" height="60" as="geometry" />
        </mxCell>
        <mxCell id="K8fyrSAq3BvqhwAzwWVH-132" value="코멘트 삭제" style="rounded=1;whiteSpace=wrap;html=1;" vertex="1" parent="WIyWlLk6GJQsqaUBKTNV-1">
          <mxGeometry x="1320" y="400" width="80" height="60" as="geometry" />
        </mxCell>
        <mxCell id="K8fyrSAq3BvqhwAzwWVH-133" value="코멘트 작성" style="rounded=1;whiteSpace=wrap;html=1;" vertex="1" parent="WIyWlLk6GJQsqaUBKTNV-1">
          <mxGeometry x="1320" y="320" width="80" height="60" as="geometry" />
        </mxCell>
      </root>
    </mxGraphModel>
  </diagram>
</mxfile>
